<?xml version="1.0" standalone="no"?>
<!DOCTYPE svg PUBLIC "-//W3C//DTD SVG 20010904//EN"
 "http://www.w3.org/TR/2001/REC-SVG-20010904/DTD/svg10.dtd">
<svg version="1.0" xmlns="http://www.w3.org/2000/svg"
 width="762.000000pt" height="437.000000pt" viewBox="0 0 762.000000 437.000000"
 preserveAspectRatio="xMidYMid meet">

<g transform="translate(0.000000,437.000000) scale(0.100000,-0.100000)"
fill="#000000" stroke="none">
<path d="M1980 3819 c-41 -5 -131 -23 -200 -40 -808 -202 -1347 -956 -1280
-1789 14 -170 33 -267 80 -412 85 -257 208 -457 404 -654 236 -236 497 -379
803 -441 109 -22 425 -25 518 -5 162 35 338 111 460 198 157 111 241 206 760
854 1050 1309 1090 1357 1234 1454 397 266 936 244 1304 -54 159 -129 294
-337 348 -535 27 -101 37 -340 19 -451 -47 -297 -235 -568 -491 -708 -170 -93
-395 -132 -591 -103 -233 35 -413 141 -568 333 -39 49 -58 80 -53 89 5 7 57
68 117 135 59 67 106 123 104 125 -4 4 -898 75 -943 75 l-22 0 -7 -516 c-4
-284 -5 -519 -2 -521 3 -3 65 50 140 117 l135 121 148 -148 c260 -262 486
-390 813 -460 130 -28 438 -25 580 6 430 92 782 323 1018 670 210 307 301 631
289 1026 -8 267 -60 483 -169 700 -306 616 -924 972 -1633 942 -168 -7 -292
-28 -441 -73 -333 -100 -583 -269 -843 -569 -124 -141 -921 -1142 -1196 -1500
-247 -322 -338 -425 -416 -476 -78 -49 -173 -80 -270 -86 -433 -28 -835 292
-952 757 -17 69 -21 114 -21 245 1 140 4 172 26 256 68 251 218 461 431 603
369 245 843 246 1202 3 123 -84 287 -263 410 -450 21 -32 42 -56 46 -55 9 4
429 539 429 547 0 16 -180 219 -277 311 -141 135 -266 224 -428 305 -196 98
-376 151 -587 174 -112 13 -319 12 -428 0z"/>
</g>
</svg>
